<svg width="136" height="46" viewBox="0 0 136 46" fill="none" xmlns="http://www.w3.org/2000/svg">
    <path
        d="M30.7894 8.25002C28.2811 6.80184 25.4358 6.03943 22.5394 6.03944C19.6431 6.03944 16.7977 6.80184 14.2894 8.25002C11.7811 9.6982 9.69818 11.7811 8.25 14.2894C6.80182 16.7978 6.03942 19.6431 6.03942 22.5394C6.03942 25.4358 6.80182 28.2811 8.25 30.7894C9.69818 33.2978 11.7811 35.3807 14.2894 36.8289C16.7977 38.277 19.6431 39.0394 22.5394 39.0394C25.4358 39.0394 28.2811 38.277 30.7894 36.8289L28.1285 32.2201C26.4292 33.2012 24.5016 33.7177 22.5394 33.7177C20.5772 33.7177 18.6496 33.2012 16.9503 32.2201C15.251 31.239 13.8399 29.8279 12.8588 28.1285C11.8777 26.4292 11.3612 24.5016 11.3612 22.5394C11.3612 20.5773 11.8777 18.6496 12.8588 16.9503C13.8399 15.251 15.251 13.8399 16.9503 12.8588C18.6496 11.8777 20.5772 11.3612 22.5394 11.3612C24.5016 11.3612 26.4292 11.8777 28.1285 12.8588L30.7894 8.25002Z"
        fill="#4062FF" />
    <path
        d="M16.456 28.744C14.776 27.064 13.936 25.016 13.936 22.6C13.936 20.184 14.776 18.136 16.456 16.456C18.152 14.776 20.384 13.936 23.152 13.936C24.384 13.936 25.456 14.112 26.368 14.464C27.296 14.816 28.232 15.344 29.176 16.048L27.64 18.88C26.216 17.792 24.728 17.248 23.176 17.248C21.512 17.248 20.184 17.76 19.192 18.784C18.2 19.792 17.704 21.064 17.704 22.6C17.704 24.136 18.2 25.416 19.192 26.44C20.184 27.448 21.512 27.952 23.176 27.952C24.728 27.952 26.216 27.408 27.64 26.32L29.176 29.152C28.232 29.856 27.296 30.384 26.368 30.736C25.456 31.088 24.384 31.264 23.152 31.264C20.384 31.264 18.152 30.424 16.456 28.744ZM34.6801 18.688V21.376C34.8561 20.384 35.2961 19.648 36.0001 19.168C36.7041 18.672 37.3921 18.424 38.0641 18.424C38.3361 18.424 38.6401 18.456 38.9761 18.52V22.048C38.5121 21.936 38.0081 21.88 37.4641 21.88C36.7281 21.88 36.0961 22.096 35.5681 22.528C35.0401 22.944 34.7761 23.536 34.7761 24.304V31H31.2001V18.688H34.6801ZM46.5209 26.392L49.4489 18.688H53.3849L45.4169 36.616H41.8169L44.6249 29.968L39.5609 18.688H43.5929L46.5209 26.392ZM64.9703 24.88C64.9703 23.856 64.6823 23.008 64.1063 22.336C63.5463 21.664 62.7783 21.328 61.8023 21.328C60.8743 21.328 60.1063 21.624 59.4983 22.216C58.8903 22.808 58.5863 23.632 58.5863 24.688C58.5863 25.824 58.8903 26.72 59.4983 27.376C60.1063 28.032 60.9063 28.36 61.8983 28.36C62.8423 28.36 63.5863 28.032 64.1303 27.376C64.6903 26.704 64.9703 25.872 64.9703 24.88ZM58.6823 36.616H55.1063V18.688H58.6823V20.488C59.6423 19.112 60.9303 18.424 62.5463 18.424C64.3703 18.424 65.8263 19.04 66.9143 20.272C68.0023 21.504 68.5463 23.048 68.5463 24.904C68.5463 26.712 68.0183 28.224 66.9623 29.44C65.9223 30.656 64.4743 31.264 62.6183 31.264C61.8183 31.264 61.0663 31.088 60.3623 30.736C59.6743 30.384 59.1143 29.912 58.6823 29.32V36.616ZM75.1317 15.664V18.688H78.5397V21.496H75.1317V27.256C75.1317 27.976 75.4357 28.336 76.0437 28.336C76.6677 28.336 76.9797 27.952 76.9797 27.184C76.9797 26.784 76.9237 26.432 76.8117 26.128H79.6437C79.8357 26.528 79.9317 27.016 79.9317 27.592C79.9317 28.6 79.5877 29.464 78.8997 30.184C78.2117 30.904 77.1877 31.264 75.8277 31.264C72.9797 31.264 71.5557 29.816 71.5557 26.92V21.496H69.7077V18.688H71.8197L72.3717 15.664H75.1317ZM82.9319 29.464C81.6039 28.248 80.9399 26.704 80.9399 24.832C80.9399 22.96 81.6039 21.424 82.9319 20.224C84.2759 19.024 85.8679 18.424 87.7079 18.424C89.5479 18.424 91.1319 19.032 92.4599 20.248C93.8039 21.448 94.4759 22.976 94.4759 24.832C94.4759 26.704 93.8039 28.248 92.4599 29.464C91.1319 30.664 89.5479 31.264 87.7079 31.264C85.8679 31.264 84.2759 30.664 82.9319 29.464ZM84.4199 24.832C84.4199 25.792 84.7399 26.592 85.3799 27.232C86.0359 27.872 86.8119 28.192 87.7079 28.192C88.6199 28.192 89.3959 27.872 90.0359 27.232C90.6759 26.576 90.9959 25.776 90.9959 24.832C90.9959 23.888 90.6759 23.096 90.0359 22.456C89.3959 21.816 88.6199 21.496 87.7079 21.496C86.8119 21.496 86.0359 21.816 85.3799 22.456C84.7399 23.096 84.4199 23.888 84.4199 24.832Z"
        fill="black" />
    <path
        d="M109.45 18.784C109.45 19.536 109.21 20.232 108.73 20.872C108.266 21.496 107.594 21.968 106.714 22.288C107.706 22.48 108.538 22.976 109.21 23.776C109.882 24.56 110.218 25.392 110.218 26.272C110.218 27.696 109.666 28.84 108.562 29.704C107.474 30.568 106.042 31 104.266 31H97.2342V14.176L103.546 14.2C105.274 14.2 106.69 14.616 107.794 15.448C108.898 16.264 109.45 17.376 109.45 18.784ZM102.898 23.848H100.954V28.048H104.266C104.906 28.048 105.426 27.88 105.826 27.544C106.242 27.208 106.45 26.76 106.45 26.2C106.45 25.496 106.202 24.928 105.706 24.496C105.226 24.064 104.29 23.848 102.898 23.848ZM100.954 21.256H102.49C104.618 21.256 105.682 20.488 105.682 18.952C105.682 18.376 105.474 17.936 105.058 17.632C104.658 17.312 104.154 17.152 103.546 17.152H100.954V21.256ZM116.149 18.688V21.376C116.325 20.384 116.765 19.648 117.469 19.168C118.173 18.672 118.861 18.424 119.533 18.424C119.805 18.424 120.109 18.456 120.445 18.52V22.048C119.981 21.936 119.477 21.88 118.933 21.88C118.197 21.88 117.565 22.096 117.037 22.528C116.509 22.944 116.245 23.536 116.245 24.304V31H112.669V18.688H116.149ZM123.385 29.464C122.057 28.248 121.393 26.704 121.393 24.832C121.393 22.96 122.057 21.424 123.385 20.224C124.729 19.024 126.321 18.424 128.161 18.424C130.001 18.424 131.585 19.032 132.913 20.248C134.257 21.448 134.929 22.976 134.929 24.832C134.929 26.704 134.257 28.248 132.913 29.464C131.585 30.664 130.001 31.264 128.161 31.264C126.321 31.264 124.729 30.664 123.385 29.464ZM124.873 24.832C124.873 25.792 125.193 26.592 125.833 27.232C126.489 27.872 127.265 28.192 128.161 28.192C129.073 28.192 129.849 27.872 130.489 27.232C131.129 26.576 131.449 25.776 131.449 24.832C131.449 23.888 131.129 23.096 130.489 22.456C129.849 21.816 129.073 21.496 128.161 21.496C127.265 21.496 126.489 21.816 125.833 22.456C125.193 23.096 124.873 23.888 124.873 24.832Z"
        fill="#4062FF" />
</svg>